<svg width="119" height="119" viewBox="0 0 119 119" fill="none" xmlns="http://www.w3.org/2000/svg">
<g id="new_releases_24px">
<path id="icon/av/new_releases_24px" fill-rule="evenodd" clip-rule="evenodd" d="M101.943 45.6911L114.042 59.4752L101.943 73.2594L103.629 91.5061L85.7296 95.5719L76.3584 111.339L59.5 104.1L42.6417 111.389L33.2705 95.6215L15.3709 91.5557L17.0567 73.2594L4.95837 59.4752L17.0567 45.6415L15.3709 27.3948L33.2705 23.3786L42.6417 7.61108L59.5 14.8503L76.3584 7.61108L85.7296 23.3786L103.629 27.4444L101.943 45.6911ZM92.9689 83.7711L91.6798 69.9373L100.853 59.4752L91.6798 49.0132L92.9689 35.1794L79.3831 32.1052L72.2927 20.1557L59.5002 25.6594L46.7077 20.2052L39.6173 32.1548L26.0314 35.1794L27.3206 48.9636L18.1477 59.4752L27.3206 69.8877L26.0314 83.7711L39.6173 86.8452L46.7077 98.7948L59.5002 93.2911L72.2927 98.7948L79.3831 86.8452L92.9689 83.7711ZM54.5417 74.3502H64.4584V84.2669H54.5417V74.3502ZM64.4584 34.6835H54.5417V64.4336H64.4584V34.6835Z" fill="#807B6F"/>
</g>
</svg>
