<svg width="76" height="76" viewBox="0 0 76 76" fill="none" xmlns="http://www.w3.org/2000/svg">
<path d="M31.5502 47.9853C37.3047 51.3076 44.6629 49.336 47.9852 43.5815C51.3076 37.8271 49.3359 30.4689 43.5815 27.1465C37.827 23.8242 30.4688 25.7958 27.1465 31.5503C23.8241 37.3047 25.7958 44.6629 31.5502 47.9853Z" stroke="black" stroke-width="4" stroke-linecap="round" stroke-linejoin="round"/>
<path d="M18.6593 39.2845L16.4423 42.6101C16.2985 42.8222 16.2033 43.0634 16.1633 43.3166C16.1234 43.5697 16.1398 43.8285 16.2113 44.0746C17.1797 47.3413 18.9069 50.3327 21.2517 52.8047C21.429 52.9897 21.645 53.1333 21.8842 53.2253C22.1234 53.3173 22.3799 53.3554 22.6355 53.337L26.6239 53.0799L29.6009 54.7986L31.3725 58.3814C31.4843 58.612 31.6455 58.8151 31.8448 58.9762C32.0441 59.1374 32.2764 59.2526 32.5253 59.3137C35.8385 60.1084 39.2927 60.1083 42.606 59.3137C42.8549 59.2526 43.0872 59.1373 43.2865 58.9762C43.4857 58.8151 43.647 58.612 43.7588 58.3814L45.5304 54.7987L48.5073 53.08L52.4959 53.3371C52.7515 53.3556 53.008 53.3175 53.2472 53.2255C53.4864 53.1335 53.7024 52.9899 53.8797 52.8049C56.2245 50.3329 57.9516 47.3415 58.92 44.0748C58.9916 43.8287 59.0079 43.5698 58.968 43.3167C58.9281 43.0636 58.8329 42.8224 58.6891 42.6102L56.4722 39.2847L56.4722 35.8472L58.6892 32.5216C58.833 32.3095 58.9282 32.0682 58.9681 31.8151C59.0081 31.562 58.9917 31.3031 58.9202 31.0571C57.9517 27.7904 56.2246 24.799 53.8798 22.3269C53.7024 22.1419 53.4865 21.9983 53.2473 21.9063C53.0081 21.8144 52.7516 21.7762 52.496 21.7947L48.5076 22.0518L45.5306 20.333L43.759 16.7503C43.6472 16.5197 43.4859 16.3166 43.2867 16.1555C43.0874 15.9943 42.8551 15.8791 42.6062 15.818C39.2929 15.0233 35.8387 15.0233 32.5255 15.818C32.2766 15.8791 32.0443 15.9943 31.845 16.1555C31.6457 16.3166 31.4845 16.5197 31.3726 16.7503L29.6011 20.3329L26.6241 22.0517L22.6356 21.7945C22.38 21.7761 22.1234 21.8142 21.8843 21.9062C21.6451 21.9982 21.4291 22.1418 21.2517 22.3267C18.9069 24.7988 17.1799 27.7902 16.2114 31.0569C16.1399 31.303 16.1235 31.5618 16.1634 31.815C16.2034 32.0681 16.2986 32.3093 16.4424 32.5214L18.6593 35.847L18.6593 39.2845Z" stroke="black" stroke-width="4" stroke-miterlimit="10"/>
</svg>
